<?xml version="1.0" encoding="UTF-8" standalone="no"?>
<svg
   xmlns:dc="http://purl.org/dc/elements/1.1/"
   xmlns:cc="http://creativecommons.org/ns#"
   xmlns:rdf="http://www.w3.org/1999/02/22-rdf-syntax-ns#"
   xmlns:svg="http://www.w3.org/2000/svg"
   xmlns="http://www.w3.org/2000/svg"
   xmlns:sodipodi="http://sodipodi.sourceforge.net/DTD/sodipodi-0.dtd"
   xmlns:inkscape="http://www.inkscape.org/namespaces/inkscape"
   version="1.1"
   width="24"
   height="24"
   viewBox="0 0 24 24"
   id="svg4"
   sodipodi:docname="blogwrite2.svg"
   inkscape:export-filename="C:\Users\torum\Desktop\blogwrite.png"
   inkscape:export-xdpi="1200"
   inkscape:export-ydpi="1200"
   inkscape:version="0.92.1 r15371">
  <metadata
     id="metadata10">
    <rdf:RDF>
      <cc:Work
         rdf:about="">
        <dc:format>image/svg+xml</dc:format>
        <dc:type
           rdf:resource="http://purl.org/dc/dcmitype/StillImage" />
        <dc:title></dc:title>
      </cc:Work>
    </rdf:RDF>
  </metadata>
  <defs
     id="defs8" />
  <sodipodi:namedview
     pagecolor="#ffffff"
     bordercolor="#666666"
     borderopacity="1"
     objecttolerance="10"
     gridtolerance="10"
     guidetolerance="10"
     inkscape:pageopacity="0"
     inkscape:pageshadow="2"
     inkscape:window-width="1341"
     inkscape:window-height="1068"
     id="namedview6"
     showgrid="false"
     inkscape:zoom="39.333333"
     inkscape:cx="11.445877"
     inkscape:cy="12.018631"
     inkscape:window-x="1818"
     inkscape:window-y="732"
     inkscape:window-maximized="0"
     inkscape:current-layer="svg4" />
  <path
     d="m -13.518395,21.339332 c 1.629483,0 2.950441,-1.382484 2.950441,-3.087867 h 0.9834783 c 0,2.273843 -1.7612753,4.117155 -3.9339193,4.117155 -2.172643,0 -3.933919,-1.843312 -3.933919,-4.117155 0,-2.273841 1.761276,-4.117153 3.933919,-4.117154 V 15.1636 c -1.629483,0 -2.95044,1.382484 -2.95044,3.087865 0,1.705383 1.320957,3.087867 2.95044,3.087867"
     id="path2"
     style="fill:#181815;fill-opacity:0.76442309;fill-rule:nonzero;stroke:#989898;stroke-width:0.50306183;stroke-opacity:0.44711543"
     inkscape:connector-curvature="0"
     sodipodi:nodetypes="cccssccsc" />
  <path
     inkscape:connector-curvature="0"
     d="m -7.3389827,-13.169492 -1.26,2.74 -2.7400003,1.2600001 2.7400003,1.25 1.26,2.75 1.25,-2.75 2.75,-1.25 -2.75,-1.2600001"
     id="path2-7"
     sodipodi:nodetypes="cccccccc" />
  <rect
     style="opacity:0.825;fill:#787869;fill-opacity:0.25961543;stroke:none;stroke-width:9.23716545;stroke-miterlimit:4;stroke-dasharray:none;stroke-opacity:1"
     id="rect4488"
     width="12.305085"
     height="2.2372882"
     x="-16.881355"
     y="3.355932" />
  <circle
     style="opacity:0.825;fill:none;fill-opacity:0.25961543;stroke:#dedede;stroke-width:2;stroke-miterlimit:4;stroke-dasharray:none;stroke-opacity:0.60215056"
     id="path4490"
     cx="11.949153"
     cy="12.254237"
     r="8.6949148" />
  <path
     d="m -21.111662,28.24826 c 1.368891,0 2.478596,-1.831724 2.478596,-4.09127 h 0.826199 c 0,3.012728 -1.479607,5.455027 -3.304795,5.455027 -1.825189,0 -3.304796,-2.442299 -3.304796,-5.455027 0,-3.012728 1.479607,-5.455028 3.304796,-5.455028 v 1.363757 c -1.368892,0 -2.478597,1.831724 -2.478597,4.091271 0,2.259545 1.109705,4.09127 2.478597,4.09127"
     id="path2-4"
     style="fill:#181815;fill-opacity:0.76442309;fill-rule:nonzero;stroke:#989898;stroke-width:0.53073871;stroke-opacity:0.44711543"
     inkscape:connector-curvature="0"
     sodipodi:nodetypes="cccssccsc" />
  <text
     xml:space="preserve"
     style="font-style:normal;font-weight:normal;font-size:14.80705929px;line-height:1.25;font-family:sans-serif;letter-spacing:0px;word-spacing:0px;fill:#ffffff;fill-opacity:0.75268818;stroke:#3f3f3f;stroke-width:0.27000001;stroke-miterlimit:4;stroke-dasharray:none;stroke-opacity:1"
     x="6.3104548"
     y="18.288588"
     id="text4509"
     transform="scale(1.0465444,0.95552563)"
     inkscape:export-xdpi="1200"
     inkscape:export-ydpi="1200"><tspan
       sodipodi:role="line"
       id="tspan4507"
       x="6.3104548"
       y="18.288588"
       style="fill:#ffffff;fill-opacity:0.75268818;stroke:#3f3f3f;stroke-width:0.27000001;stroke-miterlimit:4;stroke-dasharray:none;stroke-opacity:1">B</tspan></text>
</svg>
