<?xml version="1.0" encoding="UTF-8" standalone="no"?>
<!-- Created with Inkscape (http://www.inkscape.org/) -->

<svg
   width="210mm"
   height="297mm"
   viewBox="0 0 210 297"
   version="1.1"
   id="svg181"
   inkscape:version="1.2 (dc2aedaf03, 2022-05-15)"
   sodipodi:docname="描画.svg"
   xmlns:inkscape="http://www.inkscape.org/namespaces/inkscape"
   xmlns:sodipodi="http://sodipodi.sourceforge.net/DTD/sodipodi-0.dtd"
   xmlns:xlink="http://www.w3.org/1999/xlink"
   xmlns="http://www.w3.org/2000/svg"
   xmlns:svg="http://www.w3.org/2000/svg">
  <sodipodi:namedview
     id="namedview183"
     pagecolor="#ffffff"
     bordercolor="#000000"
     borderopacity="0.25"
     inkscape:showpageshadow="2"
     inkscape:pageopacity="0.0"
     inkscape:pagecheckerboard="0"
     inkscape:deskcolor="#d1d1d1"
     inkscape:document-units="mm"
     showgrid="false"
     inkscape:zoom="0.914906"
     inkscape:cx="333.36758"
     inkscape:cy="561.25984"
     inkscape:window-width="1409"
     inkscape:window-height="1230"
     inkscape:window-x="1855"
     inkscape:window-y="474"
     inkscape:window-maximized="0"
     inkscape:current-layer="layer1" />
  <defs
     id="defs178">
    <linearGradient
       inkscape:collect="always"
       id="linearGradient4243">
      <stop
         style="stop-color:#000000;stop-opacity:0.36000001;"
         offset="0"
         id="stop4239" />
      <stop
         style="stop-color:#000000;stop-opacity:0;"
         offset="1"
         id="stop4241" />
    </linearGradient>
    <linearGradient
       id="linearGradient4229"
       inkscape:swatch="solid">
      <stop
         style="stop-color:#000000;stop-opacity:1;"
         offset="0"
         id="stop4227" />
    </linearGradient>
    <linearGradient
       id="linearGradient2931"
       inkscape:swatch="solid">
      <stop
         style="stop-color:#000000;stop-opacity:1;"
         offset="0"
         id="stop2929" />
    </linearGradient>
    <linearGradient
       id="linearGradient2907"
       inkscape:swatch="solid">
      <stop
         style="stop-color:#db7507;stop-opacity:0.9254902;"
         offset="0"
         id="stop2905" />
    </linearGradient>
    <linearGradient
       id="linearGradient2899"
       inkscape:swatch="solid">
      <stop
         style="stop-color:#787164;stop-opacity:1;"
         offset="0"
         id="stop2897" />
    </linearGradient>
    <linearGradient
       id="linearGradient2875"
       inkscape:swatch="solid">
      <stop
         style="stop-color:#787264;stop-opacity:1;"
         offset="0"
         id="stop2873" />
    </linearGradient>
    <radialGradient
       inkscape:collect="always"
       xlink:href="#linearGradient4243"
       id="radialGradient4245"
       cx="96.590076"
       cy="131.29309"
       fx="96.590076"
       fy="131.29309"
       r="37.914794"
       gradientTransform="translate(0)"
       gradientUnits="userSpaceOnUse" />
  </defs>
  <g
     inkscape:label="Layer 1"
     inkscape:groupmode="layer"
     id="layer1">
    <path
       class="st0"
       d="M 126.38216,93.378293 H 66.797982 c -4.49791,0 -8.1227,3.6248 -8.1227,8.122707 v 59.58417 c 0,4.49792 3.62479,8.12271 8.1227,8.12271 h 59.584178 c 4.49792,0 8.12271,-3.62479 8.12271,-8.12271 V 101.501 c 0,-4.497907 -3.62479,-8.122707 -8.12271,-8.122707 z M 77.645904,158.35996 c -4.49792,0 -8.122712,-3.62479 -8.122712,-8.12271 0,-4.49791 3.624792,-8.1227 8.122712,-8.1227 4.49792,0 8.122711,3.62479 8.122711,8.1227 0,4.49792 -3.651251,8.12271 -8.122711,8.12271 z m 26.669996,0 h -5.820825 c -1.00542,0 -1.87854,-0.79375 -1.93146,-1.79916 -0.87313,-13.54667 -11.72104,-24.36813 -25.241253,-25.24125 -1.00542,-0.0529 -1.79917,-0.92604 -1.79917,-1.93146 v -5.82083 c 0,-1.11125 0.92604,-1.98438 2.03729,-1.93146 18.706053,1.00541 33.681458,16.00729 34.686878,34.68687 0.0529,1.11125 -0.84667,2.03729 -1.93146,2.03729 z m 17.43605,0 h -5.82083 c -1.03188,0 -1.87855,-0.8202 -1.93147,-1.87854 -0.9525,-23.09812 -19.499785,-41.67187 -42.624368,-42.62437 -1.03188,-0.0529 -1.87855,-0.89959 -1.87855,-1.93146 v -5.82083 c 0,-1.0848 0.89959,-1.98438 1.98438,-1.93147 28.416253,1.03188 51.143968,23.89188 52.175838,52.17584 0.0529,1.11125 -0.82021,2.01083 -1.905,2.01083 z"
       id="path4"
       style="fill:#787264;fill-opacity:1;fill-rule:evenodd;stroke:url(#radialGradient4245);stroke-opacity:1"
       inkscape:export-filename="path4.png"
       inkscape:export-xdpi="96"
       inkscape:export-ydpi="96" />
    <path
       style="fill:#787264;fill-opacity:1;fill-rule:evenodd;stroke:#000000;stroke-width:1.09301;stroke-opacity:1"
       d="m 435.35438,597.11658 c -3.15542,-1.52485 -3.47533,-2.55665 -4.80258,-15.4904 -3.93818,-38.37665 -19.62247,-72.25856 -46.24357,-99.89753 -27.96269,-29.03186 -63.27012,-46.61096 -101.76554,-50.66772 -20.09273,-2.11743 -19.12765,-1.15502 -19.12765,-19.07481 0,-12.29718 0.21524,-13.79978 2.27128,-15.85582 2.05079,-2.05079 3.08535,-2.20171 10.65683,-1.55467 46.52636,3.97605 86.75718,20.73771 120.7466,50.30751 39.47277,34.34015 65.54933,86.59762 69.2118,138.70055 0.70743,10.06402 0.70477,10.07828 -2.31927,12.45699 -2.69525,2.12009 -4.30087,2.37333 -14.62996,2.30748 -6.38134,-0.0407 -12.68041,-0.59491 -13.99794,-1.23158 z"
       id="path3829"
       transform="scale(0.26458333)"
       inkscape:export-filename="path3829.png"
       inkscape:export-xdpi="96"
       inkscape:export-ydpi="96" />
    <path
       style="fill:#787264;fill-opacity:1;fill-rule:evenodd;stroke:#000000;stroke-width:1.09301;stroke-opacity:1"
       d="m 437.47424,596.55744 c -3.477,-0.66949 -4.39631,-3.0004 -5.78065,-14.65669 -5.04737,-42.49949 -20.01018,-73.63527 -49.61255,-103.23764 -28.06728,-28.06728 -57.4765,-42.86989 -95.41248,-48.02419 -23.64178,-3.21216 -22.16051,-1.97345 -22.16051,-18.53172 0,-10.37172 0.3241,-12.77068 2.00594,-14.84766 1.99114,-2.45896 2.09383,-2.46735 13.91759,-1.13688 27.16905,3.0572 49.30952,9.44201 72.39227,20.87633 60.13574,29.78895 102.25173,88.83924 111.17321,155.87454 2.29873,17.27245 2.17308,19.49342 -1.25538,22.19024 -2.4749,1.94676 -4.28109,2.24442 -12.84285,2.11651 -5.47961,-0.0819 -11.07068,-0.36215 -12.42459,-0.62284 z"
       id="path3831"
       transform="scale(0.26458333)" />
    <path
       style="fill:#787264;fill-opacity:1;fill-rule:evenodd;stroke:#000000;stroke-width:1.09301;stroke-opacity:1"
       d="m 438.56725,595.46443 c -3.3801,-0.65083 -4.28019,-2.77433 -5.71521,-13.48328 -5.86226,-43.7475 -19.28018,-72.23567 -48.02904,-101.97257 -28.51879,-29.49892 -57.65531,-44.42115 -98.45478,-50.4235 -21.81797,-3.20982 -20.76717,-2.32546 -20.76717,-17.47788 0,-9.34087 0.34696,-11.70589 2.02047,-13.7726 l 2.02047,-2.49517 14.00895,1.86818 c 36.0406,4.80622 68.11917,17.05928 95.61646,36.52264 12.76824,9.03773 35.67266,31.49484 44.78743,43.91279 22.22893,30.28462 35.2023,63.43878 39.53114,101.02403 l 1.37008,11.89567 -3.0072,2.58669 c -2.67327,2.29945 -4.00174,2.57016 -11.96356,2.43784 -4.92601,-0.0819 -10.06413,-0.36215 -11.41804,-0.62284 z"
       id="path3833"
       transform="scale(0.26458333)" />
    <path
       style="fill:#787264;fill-opacity:1;fill-rule:evenodd;stroke:#000000;stroke-width:1.09301;stroke-opacity:1"
       d="m 439.66026,594.37142 c -3.4206,-0.65864 -4.13825,-2.48947 -6.22354,-15.87726 -7.14543,-45.87468 -21.07813,-73.01485 -53.74776,-104.6979 -25.23795,-24.4758 -50.72676,-37.55295 -85.27151,-43.74892 -23.10148,-4.14349 -24.4204,-4.45273 -26.08314,-6.11547 -2.57736,-2.57736 -2.30925,-21.1829 0.35262,-24.47017 1.9451,-2.40209 2.21366,-2.43018 11.20334,-1.17177 40.57023,5.67919 73.06944,18.07783 100.15569,38.20997 11.3228,8.4158 30.4459,26.81369 39.25885,37.77002 23.37844,29.06427 38.2113,65.17047 43.1123,104.94404 l 1.33691,10.84955 -2.95269,2.5398 c -2.54475,2.1889 -4.03909,2.51924 -10.81604,2.39095 -4.32485,-0.0819 -8.97112,-0.36215 -10.32503,-0.62284 z"
       id="path3835"
       transform="scale(0.26458333)" />
    <path
       style="fill:#787264;fill-opacity:1;fill-rule:evenodd;stroke:#000000;stroke-width:1.09301;stroke-opacity:1"
       d="m 439.75877,592.95859 c -2.84675,-1.14797 -2.91836,-1.37299 -5.91381,-18.58265 -7.77227,-44.65387 -20.8768,-69.35926 -53.62842,-101.10328 -26.95705,-26.12772 -48.43539,-36.96497 -88.90549,-44.85871 -10.23299,-1.99596 -19.47043,-3.9632 -20.52764,-4.37165 -2.61563,-1.01055 -3.30979,-4.49077 -2.82209,-14.14862 0.60148,-11.91106 1.02028,-12.17578 15.63662,-9.88379 39.14985,6.13907 71.43316,18.98687 97.31551,38.72867 9.99482,7.62356 31.70662,29.1059 39.32171,38.90614 21.53164,27.71012 35.18356,60.82741 40.60101,98.49132 l 1.84373,12.81824 -2.96214,2.54791 c -2.48853,2.14056 -4.13196,2.53685 -10.27898,2.47864 -4.02427,-0.0381 -8.38028,-0.49811 -9.68001,-1.02222 z"
       id="path3837"
       transform="scale(0.26458333)" />
    <path
       style="fill:#787264;fill-opacity:1;fill-rule:evenodd;stroke:#000000;stroke-width:1.09301;stroke-opacity:1"
       d="m 440.81299,591.85123 c -2.72431,-1.09712 -3.11792,-2.40104 -7.33745,-24.30709 -7.66093,-39.77233 -19.07588,-60.90022 -49.21467,-91.09133 -30.89825,-30.95189 -48.38259,-40.02566 -95.70664,-49.66843 -10.90465,-2.22194 -17.42848,-4.07357 -18.30789,-5.19624 -1.59359,-2.03442 -1.83352,-14.16421 -0.35698,-18.0478 0.5551,-1.46003 1.69696,-2.91849 2.53745,-3.24102 1.99257,-0.76462 22.74856,2.62113 35.26729,5.75285 23.81409,5.9574 46.66857,15.96235 65.23428,28.55747 15.48967,10.50831 44.18934,39.56471 54.27212,54.9467 17.47803,26.66402 27.90575,55.01433 32.993,89.69962 l 1.27683,8.70554 -2.90385,2.4978 c -2.31898,1.9947 -4.15742,2.48383 -9.1277,2.4285 -3.42312,-0.0381 -7.30473,-0.50456 -8.62579,-1.03657 z"
       id="path3839"
       transform="scale(0.26458333)" />
    <path
       style="fill:#787264;fill-opacity:1;fill-rule:evenodd;stroke:#000000;stroke-width:1.09301;stroke-opacity:1"
       d="m 441.94479,590.77257 c -2.84034,-1.14538 -2.74921,-0.86897 -6.90169,-20.93591 -9.41769,-45.51121 -20.09922,-64.93848 -53.73855,-97.73829 -27.14043,-26.46308 -44.6459,-35.68534 -84.80033,-44.67463 -21.50988,-4.81537 -24.52075,-5.68689 -25.61779,-7.41527 -1.23048,-1.93862 -1.13009,-12.15042 0.15261,-15.52419 1.3373,-3.51736 3.96684,-3.59992 20.4018,-0.64054 28.93872,5.21086 57.39966,16.23702 78.71729,30.49616 10.76298,7.19924 31.14676,26.05338 43.82887,40.53986 22.76206,26.0006 37.62987,59.75636 44.535,101.11192 l 1.82103,10.90633 -2.88671,2.48303 c -3.06564,2.63696 -10.72022,3.32364 -15.51153,1.39153 z"
       id="path3841"
       transform="scale(0.26458333)" />
    <path
       style="fill:#787264;fill-opacity:1;fill-rule:evenodd;stroke:#000000;stroke-width:1.09301;stroke-opacity:1"
       d="m 441.90453,588.91417 c -1.45761,-1.45761 -3.22599,-7.33035 -5.71556,-18.98126 -6.14089,-28.73866 -12.88856,-46.88626 -23.54503,-63.32349 -6.15991,-9.50145 -10.58669,-14.72706 -24.43085,-28.83946 -32.36393,-32.99103 -46.87075,-40.98778 -94.46836,-52.07485 -10.07005,-2.34565 -19.29231,-4.79097 -20.49391,-5.43405 -1.72795,-0.92477 -2.18472,-2.28893 -2.18472,-6.52466 0,-2.94549 0.50576,-6.6857 1.12392,-8.31158 1.09655,-2.88414 1.28599,-2.93921 7.7764,-2.26083 3.65886,0.38242 12.37535,1.97465 19.36998,3.53828 31.69946,7.08631 58.89428,19.3435 79.39103,35.78293 14.21236,11.39903 38.58968,37.20235 46.80548,49.54342 16.17941,24.30338 26.64724,52.96579 32.90131,90.0885 0.86972,5.1624 -1.87484,7.70236 -9.0698,8.39369 -4.27977,0.41124 -5.77122,0.092 -7.45989,-1.59664 z"
       id="path3843"
       transform="scale(0.26458333)" />
    <path
       style="fill:#787264;fill-opacity:1;fill-rule:evenodd;stroke:#000000;stroke-width:1.09301;stroke-opacity:1"
       d="m 442.88027,588.29381 c -0.73793,-0.88915 -3.98616,-12.13111 -7.21829,-24.98214 -10.06892,-40.03426 -17.30121,-54.5149 -39.23767,-78.56242 -19.22,-21.06964 -36.42096,-35.52346 -51.58014,-43.34237 -12.06316,-6.22202 -20.49581,-9.06441 -46.42525,-15.64854 -12.30849,-3.12543 -23.25224,-6.14991 -24.31944,-6.72106 -2.22272,-1.18957 -2.65049,-7.69557 -0.82215,-12.50445 1.07322,-2.8228 1.3481,-2.91153 6.8313,-2.20511 9.64769,1.24293 30.25572,6.13017 42.32886,10.03838 15.60035,5.05001 40.06362,17.41133 51.3714,25.95803 11.47439,8.67263 38.9058,36.49575 47.7737,48.45588 15.32754,20.67225 28.38218,53.52762 34.56649,86.9955 1.4351,7.76636 1.41258,8.70028 -0.25945,10.76516 -2.38209,2.94175 -11.05312,4.11026 -13.00936,1.75314 z"
       id="path3845"
       transform="scale(0.26458333)" />
    <path
       style="fill:#787264;fill-opacity:1;fill-rule:evenodd;stroke:#000000;stroke-width:1.09301;stroke-opacity:1"
       d="m 444.0776,587.32569 c -0.67206,-0.81024 -3.9316,-11.55616 -7.24341,-23.87983 -12.68198,-47.19127 -19.12202,-58.78178 -49.88161,-89.77475 -22.09068,-22.25831 -36.24567,-32.2304 -56.65523,-39.91322 -3.79266,-1.42769 -17.30508,-5.33554 -30.02758,-8.68412 -12.72251,-3.34858 -24.00614,-6.55624 -25.07475,-7.12814 -2.3752,-1.27117 -2.66074,-8.30746 -0.4593,-11.31812 1.43468,-1.96203 1.80421,-1.96626 11.20334,-0.12831 33.65095,6.58027 58.15361,15.96407 82.20208,31.481 10.7041,6.90666 46.34171,42.57208 54.63465,54.67726 11.27884,16.46372 22.19406,42.12272 28.71349,67.49836 4.25941,16.57895 5.10415,24.21122 2.88367,26.05405 -2.59474,2.15343 -8.8705,2.8336 -10.29535,1.11582 z"
       id="path3847"
       transform="scale(0.26458333)" />
    <path
       style="fill:#787264;fill-opacity:1;fill-rule:evenodd;stroke:#000000;stroke-width:1.09301;stroke-opacity:1"
       d="m 445.17125,586.19605 c -0.63827,-0.79009 -4.22166,-12.25731 -7.96308,-25.48271 -13.31932,-47.08192 -18.89162,-56.85377 -50.18164,-88.00095 -30.07161,-29.93434 -40.50093,-35.94139 -82.72272,-47.64636 -14.37324,-3.98463 -26.9939,-7.69668 -28.04592,-8.249 -2.28436,-1.19932 -2.53715,-6.21366 -0.45668,-9.05887 1.4038,-1.91981 1.86497,-1.90386 12.84285,0.44408 38.80241,8.29902 68.84132,21.55459 89.23646,39.37828 12.92275,11.29342 37.43382,36.84434 43.50026,45.3457 10.24064,14.35098 21.38452,40.10909 28.35337,65.53641 4.5834,16.72347 5.7123,24.85619 3.68395,26.53956 -2.53503,2.10389 -6.99061,2.74891 -8.24685,1.19386 z"
       id="path3849"
       transform="scale(0.26458333)" />
    <path
       style="fill:#787264;fill-opacity:1;fill-rule:evenodd;stroke:#000000;stroke-width:1.09301;stroke-opacity:1"
       d="m 446.12862,584.91995 c -0.54572,-0.6894 -3.99405,-11.39853 -7.66298,-23.79809 -14.73583,-49.80157 -20.1439,-59.17385 -52.34697,-90.71801 -19.60242,-19.20133 -28.10854,-25.76904 -42.36751,-32.71264 -9.8401,-4.79176 -17.45596,-7.29942 -59.89471,-19.72142 -7.93015,-2.32119 -9.41783,-3.93553 -7.50188,-8.14057 1.39983,-3.0723 1.00673,-3.10644 21.91669,1.90322 28.13504,6.74067 54.17079,18.01323 71.1656,30.8122 10.70125,8.05922 43.10409,40.55677 50.58892,50.73678 11.97399,16.28566 26.39834,52.36144 32.01081,80.06008 1.32864,6.55713 1.46384,9.12619 0.53894,10.24065 -1.73728,2.09328 -5.26876,2.8261 -6.44691,1.3378 z"
       id="path3851"
       transform="scale(0.26458333)" />
    <path
       style="fill:#787264;fill-opacity:1;fill-rule:evenodd;stroke:#000000;stroke-width:1.09301;stroke-opacity:1"
       d="m 446.69354,583.39326 c -0.26177,-0.45086 -3.78465,-11.64054 -7.82864,-24.86594 -15.03377,-49.16628 -19.65705,-56.93323 -53.68759,-90.19325 -29.84608,-29.17029 -34.04295,-31.35791 -96.29433,-50.19348 -6.13131,-1.85517 -11.42033,-3.81394 -11.75338,-4.35283 -1.27209,-2.05828 0.79608,-4.45609 3.84349,-4.45609 4.23127,0 29.91784,6.68958 42.01091,10.94094 28.54977,10.03678 42.98935,19.38782 68.0746,44.08495 24.83,24.44583 30.46165,31.54796 39.06043,49.25942 11.56267,23.81643 24.25206,65.39164 21.11296,69.17403 -1.29573,1.56124 -3.78954,1.89218 -4.53845,0.60225 z"
       id="path3853"
       transform="scale(0.26458333)" />
    <path
       style="fill:#787264;fill-opacity:1;fill-rule:evenodd;stroke:#000000;stroke-width:1.09301;stroke-opacity:1"
       d="m 447.10832,580.56599 c -0.56157,-1.47706 -3.99622,-12.20448 -7.63254,-23.8387 -14.80076,-47.35424 -19.20512,-54.91414 -49.62667,-85.18204 -18.22224,-18.1302 -30.82378,-28.55513 -40.35599,-33.38547 -8.52097,-4.3179 -22.40374,-9.36064 -46.18327,-16.7755 -24.48411,-7.63455 -26.45616,-8.44033 -24.77387,-10.12262 1.49352,-1.49352 10.30593,0.23662 30.04175,5.89812 38.98651,11.18381 55.38063,21.53751 89.90693,56.78068 17.21011,17.56743 22.58171,24.52286 29.395,38.06221 12.30347,24.4494 25.56263,67.96532 21.478,70.48976 -0.72028,0.44516 -1.65059,-0.3516 -2.24934,-1.92644 z"
       id="path3855"
       transform="scale(0.26458333)" />
    <path
       style="fill:#787264;fill-opacity:1;fill-rule:evenodd;stroke:#000000;stroke-width:1.09301;stroke-opacity:1"
       d="m 447.60294,578.55709 c -0.40156,-1.3979 -4.40845,-13.85427 -8.90421,-27.68083 -9.08131,-27.92929 -15.93313,-43.20037 -24.52051,-54.65042 -7.66809,-10.2243 -38.89286,-41.06858 -50.33314,-49.7198 -12.42025,-9.39229 -21.72076,-13.52548 -55.41964,-24.62877 -15.82221,-5.21319 -28.56076,-9.68542 -28.30789,-9.9383 0.71898,-0.71897 14.26341,2.36234 28.65734,6.51946 35.78956,10.33639 50.63834,19.31275 80.72729,48.80112 27.48715,26.93849 32.82162,34.06834 42.52558,56.838 8.32233,19.52777 18.77047,54.53601 16.84948,56.45701 -0.2993,0.2993 -0.87273,-0.59956 -1.2743,-1.99747 z"
       id="path3857"
       transform="scale(0.26458333)" />
    <path
       style="fill:#787264;fill-opacity:1;fill-rule:evenodd;stroke:#000000;stroke-width:1.09301;stroke-opacity:1"
       d=""
       id="path3859"
       transform="scale(0.26458333)" />
    <path
       style="fill:#787264;fill-opacity:1;fill-rule:evenodd;stroke:#000000;stroke-width:1.09301;stroke-opacity:1"
       d=""
       id="path3861"
       transform="scale(0.26458333)" />
    <path
       style="fill:#787264;fill-opacity:1;fill-rule:evenodd;stroke:#000000;stroke-width:1.09301;stroke-opacity:1"
       d=""
       id="path3863"
       transform="scale(0.26458333)" />
    <path
       style="fill:#787264;fill-opacity:1;fill-rule:evenodd;stroke:#000000;stroke-width:1.09301;stroke-opacity:1"
       d="m 369.43686,597.01262 c -2.8977,-1.46054 -2.9629,-1.66389 -6.02541,-18.79105 -7.53014,-42.11256 -42.9457,-75.50412 -86.5505,-81.60413 -13.30921,-1.86187 -13.44591,-2.05304 -13.44591,-18.80334 0,-11.68389 0.26802,-13.73576 1.99883,-15.30212 2.56561,-2.32185 10.19283,-2.35315 22.11907,-0.0908 61.29101,11.62671 106.60895,60.95553 113.07974,123.08794 0.71674,6.88214 0.59787,7.47087 -2.04159,10.11033 -2.66452,2.66451 -3.38427,2.80186 -14.60219,2.78655 -7.28423,-0.01 -12.84517,-0.54316 -14.53204,-1.3934 z"
       id="path3865"
       transform="scale(0.26458333)" />
    <path
       style="fill:#787264;fill-opacity:1;fill-rule:evenodd;stroke:#000000;stroke-width:1.09301;stroke-opacity:1"
       d="m 372.16938,596.53821 c -3.72479,-0.91557 -4.59967,-2.29961 -5.90286,-9.33831 -5.59481,-30.21806 -13.35052,-45.73853 -31.69086,-63.41866 -15.4741,-14.91707 -31.35916,-22.94438 -54.60474,-27.59379 -6.82487,-1.36506 -12.97304,-3.04475 -13.66261,-3.73266 -0.75652,-0.7547 -1.39767,-6.39874 -1.61663,-14.23129 -0.36259,-12.97039 -0.36063,-12.98203 2.50103,-14.85707 3.62855,-2.37751 13.173,-1.65164 28.11212,2.13798 26.38255,6.69248 48.81647,19.77197 66.91952,39.01563 19.50263,20.73142 32.15129,46.91383 36.43329,75.41602 l 1.83297,12.20072 -3.01823,2.59617 c -2.73351,2.35127 -3.9662,2.58421 -13.0676,2.46938 -5.52716,-0.0697 -11.03309,-0.36859 -12.2354,-0.66412 z"
       id="path3867"
       transform="scale(0.26458333)" />
    <path
       style="fill:#787264;fill-opacity:1;fill-rule:evenodd;stroke:#000000;stroke-width:1.09301;stroke-opacity:1"
       d="m 373.06851,595.47514 c -3.60364,-0.70148 -4.20032,-1.99966 -7.43721,-16.18066 -5.95787,-26.10174 -13.00742,-39.16837 -29.93599,-55.48756 -16.38863,-15.79868 -27.59072,-21.76348 -52.58899,-28.00214 l -15.83149,-3.95097 -0.7739,-4.37204 c -0.42564,-2.40462 -0.80224,-8.17256 -0.83689,-12.81765 -0.059,-7.90917 0.11648,-8.56321 2.76237,-10.29686 2.48901,-1.63086 3.88776,-1.70669 11.74984,-0.63696 18.30551,2.49068 38.52897,9.87011 55.08128,20.09888 11.71035,7.23659 31.66103,26.54657 39.34592,38.08236 11.54855,17.33551 19.45521,37.34259 22.84952,57.81858 l 1.8841,11.36573 -2.98797,2.57013 c -2.65094,2.28025 -3.99817,2.55334 -11.94432,2.42129 -4.926,-0.0819 -10.02733,-0.35733 -11.33627,-0.61213 z"
       id="path3869"
       transform="scale(0.26458333)" />
    <path
       style="fill:#787264;fill-opacity:1;fill-rule:evenodd;stroke:#000000;stroke-width:1.09301;stroke-opacity:1"
       d="m 374.07975,594.37142 c -3.22307,-0.6206 -3.96986,-2.18863 -7.30099,-15.32984 -6.73698,-26.57724 -11.61419,-36.02435 -26.83699,-51.98299 -10.74633,-11.26579 -19.47805,-18.16072 -29.14537,-23.0144 -5.80375,-2.91389 -25.74326,-9.27154 -36.5893,-11.66638 l -6.14957,-1.35784 -0.67223,-5.59463 c -0.36973,-3.07705 -0.67651,-8.41145 -0.68174,-11.85423 -0.0155,-10.21661 3.72264,-11.2787 23.70672,-6.73564 19.07871,4.33724 39.89548,14.08576 53.75137,25.17185 10.14739,8.11892 23.78918,22.36936 29.57486,30.89441 10.07941,14.85173 19.0704,37.47564 22.59189,56.84764 l 1.87089,10.29198 -2.96557,2.55087 c -2.55941,2.2015 -4.04257,2.5305 -10.82894,2.40204 -4.32485,-0.0819 -8.97112,-0.36215 -10.32503,-0.62284 z"
       id="path3871"
       transform="scale(0.26458333)" />
    <path
       style="fill:#787264;fill-opacity:1;fill-rule:evenodd;stroke:#000000;stroke-width:1.09301;stroke-opacity:1"
       d="m 374.12964,592.94059 c -1.80544,-0.72684 -2.98815,-2.97641 -4.70439,-8.94803 -10.03303,-34.90966 -12.98805,-40.83615 -28.40661,-56.97143 -12.68519,-13.27485 -20.56005,-19.44847 -30.90103,-24.22537 -6.97136,-3.22034 -27.9877,-9.91686 -37.54435,-11.9629 -3.07494,-0.65833 -3.47916,-1.22496 -4.09878,-5.74556 -0.37807,-2.75835 -0.68741,-7.6404 -0.68741,-10.84899 0,-5.02549 0.38078,-6.08329 2.74823,-7.6345 2.55372,-1.67326 3.46269,-1.67091 12.84285,0.0333 19.85714,3.6076 42.59769,13.31111 57.68179,24.61312 8.30713,6.22425 26.41869,24.63887 31.43917,31.96524 9.05954,13.22055 18.03425,35.30985 22.14297,54.50004 l 2.41423,11.27586 -2.9406,2.52938 c -2.46439,2.11979 -4.12544,2.51817 -10.25744,2.4601 -4.02427,-0.0381 -8.40216,-0.50619 -9.72863,-1.04022 z"
       id="path3873"
       transform="scale(0.26458333)" />
    <path
       style="fill:#787264;fill-opacity:1;fill-rule:evenodd;stroke:#000000;stroke-width:1.09301;stroke-opacity:1"
       d="m 375.25625,591.86002 c -1.87108,-0.75413 -3.21929,-3.71085 -6.32289,-13.86658 -9.63026,-31.51252 -13.78566,-38.67197 -33.50346,-57.72398 -8.87477,-8.57511 -14.64124,-13.16895 -20.09696,-16.0102 -6.82582,-3.55477 -28.42326,-11.02375 -40.57217,-14.03095 -4.07628,-1.009 -4.56701,-1.50256 -5.17976,-5.20959 -0.37228,-2.25225 -0.68228,-6.66589 -0.6889,-9.8081 -0.0103,-4.88057 0.38246,-5.97157 2.69509,-7.48687 2.52161,-1.65222 3.47053,-1.61032 13.84708,0.61135 19.91609,4.26414 40.75786,13.39963 54.67407,23.96507 11.15029,8.46551 29.66172,28.40589 35.29697,38.02163 6.5468,11.17117 13.19944,28.31963 17.27566,44.53133 l 3.28045,13.04678 -2.93966,2.52859 c -2.35776,2.02807 -4.17163,2.51487 -9.1635,2.4593 -3.42311,-0.0381 -7.29402,-0.50061 -8.60202,-1.02778 z"
       id="path3875"
       transform="scale(0.26458333)" />
    <path
       style="fill:#787264;fill-opacity:1;fill-rule:evenodd;stroke:#000000;stroke-width:1.09301;stroke-opacity:1"
       d="m 376.38603,590.78061 c -1.84449,-0.74437 -3.55157,-4.61512 -8.04361,-18.23861 -8.96165,-27.17901 -11.86165,-32.02667 -29.98944,-50.1305 -11.15239,-11.13764 -17.16823,-16.27534 -21.92703,-18.72628 -6.68574,-3.44339 -23.28666,-9.42411 -37.30011,-13.43791 -8.69554,-2.49063 -9.15275,-3.20763 -9.15275,-14.35356 0,-4.29988 0.46717,-5.60932 2.46927,-6.92114 6.46137,-4.23365 42.71255,8.10405 62.29453,21.20128 8.43015,5.63842 30.74111,27.71591 36.52245,36.14026 7.82729,11.40562 14.58923,27.72455 20.14141,48.6083 l 3.19647,12.02309 -2.80405,2.45927 c -2.97604,2.6101 -10.65051,3.29541 -15.40714,1.3758 z"
       id="path3877"
       transform="scale(0.26458333)" />
    <path
       style="fill:#787264;fill-opacity:1;fill-rule:evenodd;stroke:#000000;stroke-width:1.09301;stroke-opacity:1"
       d="m 376.42792,588.7487 c -1.0743,-1.25469 -4.70268,-10.04335 -8.06307,-19.53034 -9.12298,-25.75582 -11.06808,-28.88146 -29.50625,-47.41434 -18.46627,-18.56113 -21.83777,-20.59899 -47.72672,-28.84782 -9.84601,-3.13717 -16.99336,-6.03435 -18.15302,-7.35833 -2.49218,-2.84533 -2.66171,-13.07549 -0.24984,-15.07716 6.68425,-5.54744 50.59036,11.19918 67.57425,25.7741 11.40832,9.79018 27.3387,26.66308 31.88775,33.77439 6.75007,10.55206 13.08104,26.67668 18.97196,48.32047 2.09766,7.70698 2.09853,7.87105 0.0519,9.7232 -1.14496,1.03618 -4.50093,2.11641 -7.45773,2.40052 -4.48402,0.43086 -5.70005,0.13807 -7.32925,-1.76469 z"
       id="path3879"
       transform="scale(0.26458333)" />
    <path
       style="fill:#787264;fill-opacity:1;fill-rule:evenodd;stroke:#000000;stroke-width:1.09301;stroke-opacity:1"
       d="m 378.60669,588.90316 c -1.88878,-1.34547 -4.0955,-6.25956 -9.71395,-21.63177 -8.81903,-24.12906 -10.89764,-27.37566 -29.46643,-46.02388 -15.0076,-15.07181 -17.25298,-16.8978 -25.73288,-20.92655 -5.10982,-2.42764 -15.62281,-6.49364 -23.36221,-9.03556 -7.73939,-2.54192 -14.99424,-5.54429 -16.12187,-6.67192 -2.36401,-2.36401 -2.84396,-10.6564 -0.73863,-12.76173 3.15048,-3.15048 19.04931,0.60083 37.82141,8.92393 17.96821,7.96668 26.69503,14.30451 43.63601,31.69055 14.08513,14.45515 15.6507,16.48289 20.86081,27.01902 5.30508,10.72819 11.22542,27.11838 14.4862,40.10444 1.26522,5.03875 1.23329,5.97336 -0.255,7.46164 -1.92436,1.92437 -9.57017,3.1649 -11.41346,1.85183 z"
       id="path3881"
       transform="scale(0.26458333)" />
    <path
       style="fill:#787264;fill-opacity:1;fill-rule:evenodd;stroke:#000000;stroke-width:1.09301;stroke-opacity:1"
       d="m 377.12009,584.27609 c -1.2813,-2.51156 -4.72338,-10.90924 -7.64907,-18.66151 -8.67916,-22.9974 -10.51804,-25.79598 -29.52472,-44.9334 -19.18714,-19.31912 -19.92685,-19.78391 -47.56032,-29.88441 -9.01391,-3.29473 -17.00653,-6.83505 -17.76139,-7.86739 -1.88547,-2.57853 -1.72581,-8.54931 0.27296,-10.20814 5.1277,-4.25561 43.33224,10.30561 59.56304,22.70177 3.9075,2.98433 13.2624,11.76364 20.78867,19.50957 10.96988,11.29006 14.57762,15.81789 18.1888,22.82758 5.18483,10.0643 11.28615,25.99546 14.64595,38.24204 2.6666,9.71986 2.13808,11.09224 -4.6991,12.20175 -3.74482,0.60771 -4.04788,0.4177 -6.26482,-3.92786 z"
       id="path3883"
       transform="scale(0.26458333)" />
    <path
       style="fill:#787264;fill-opacity:1;fill-rule:evenodd;stroke:#000000;stroke-width:1.09301;stroke-opacity:1"
       d="m 379.54553,586.12578 c -0.599,-0.75144 -4.15103,-8.98999 -7.8934,-18.30789 -10.31906,-25.6928 -11.84692,-28.12348 -28.35275,-45.10658 -8.0635,-8.29664 -17.14271,-16.90663 -20.17604,-19.1333 -3.30869,-2.4288 -13.84134,-7.37244 -26.32692,-12.35688 -18.26297,-7.29088 -20.94051,-8.67152 -21.86282,-11.27335 -1.58462,-4.47017 0.3863,-6.73773 5.56632,-6.40411 10.13446,0.65272 38.85348,12.70832 51.03715,21.42425 3.71198,2.65547 13.47594,11.71228 21.6977,20.12624 14.28522,14.61919 15.21517,15.8497 20.95397,27.72613 6.49458,13.44055 13.82926,34.33616 13.82926,39.39789 0,2.36697 -0.69154,3.40488 -2.80367,4.20791 -3.63844,1.38333 -4.35708,1.34526 -5.6688,-0.30031 z"
       id="path3885"
       transform="scale(0.26458333)" />
    <path
       style="fill:#787264;fill-opacity:1;fill-rule:evenodd;stroke:#000000;stroke-width:1.09301;stroke-opacity:1"
       d="m 380.60181,585.03278 c -0.61919,-0.75145 -4.16022,-8.74407 -7.86895,-17.76139 -10.33963,-25.13949 -12.48886,-28.41937 -30.93404,-47.2075 -17.54615,-17.87238 -22.06416,-20.98048 -41.768,-28.73368 -21.09427,-8.30032 -26.32804,-11.63292 -24.05223,-15.31525 2.20661,-3.57037 18.42954,1.19736 39.90085,11.7264 l 14.75562,7.2358 18.20722,18.11248 c 16.81214,16.72464 18.58116,18.86622 23.08734,27.94955 5.66084,11.41083 13.54168,32.33573 14.54756,38.6261 0.58547,3.66135 0.34439,4.52617 -1.54333,5.53644 -2.80433,1.50084 -2.96116,1.49471 -4.33204,-0.16895 z"
       id="path3887"
       transform="scale(0.26458333)" />
    <path
       style="fill:#787264;fill-opacity:1;fill-rule:evenodd;stroke:#000000;stroke-width:1.09301;stroke-opacity:1"
       d="m 373.25554,565.61594 c -4.6568,-10.82954 -10.41564,-22.51107 -12.79743,-25.95895 -6.34397,-9.18351 -30.88768,-33.65785 -39.11362,-39.00307 -3.90751,-2.53909 -13.90389,-7.4758 -22.21418,-10.97045 -15.56957,-6.54734 -22.05284,-10.13608 -21.74879,-12.03877 0.62325,-3.90013 15.18174,0.39941 37.40492,11.04673 l 14.75561,7.06954 16.18862,16.08106 c 8.90374,8.84458 17.88479,18.36673 19.95789,21.16033 4.37145,5.89071 13.17346,25.84321 17.44603,39.54683 2.39541,7.6829 2.69976,9.79748 1.60075,11.12172 -0.74637,0.89932 -1.72961,1.63512 -2.18497,1.63512 -0.45536,0 -4.63804,-8.86054 -9.29483,-19.69009 z"
       id="path3889"
       transform="scale(0.26458333)" />
    <path
       style="fill:#787264;fill-opacity:1;fill-rule:evenodd;stroke:#000000;stroke-width:1.09301;stroke-opacity:1"
       d=""
       id="path3891"
       transform="scale(0.26458333)" />
    <path
       style="fill:#787264;fill-opacity:1;fill-rule:evenodd;stroke:#000000;stroke-width:1.09301;stroke-opacity:1"
       d=""
       id="path3893"
       transform="scale(0.26458333)" />
    <path
       style="fill:#787264;fill-opacity:1;fill-rule:evenodd;stroke:#000000;stroke-width:1.09301;stroke-opacity:1"
       d=""
       id="path3895"
       transform="scale(0.26458333)" />
    <path
       style="fill:#787264;fill-opacity:1;fill-rule:evenodd;stroke:#000000;stroke-width:1.09301;stroke-opacity:1"
       d=""
       id="path3897"
       transform="scale(0.26458333)" />
    <path
       style="fill:#787264;fill-opacity:1;fill-rule:evenodd;stroke:#000000;stroke-width:1.09301;stroke-opacity:1"
       d=""
       id="path3899"
       transform="scale(0.26458333)" />
    <path
       style="fill:#787264;fill-opacity:1;fill-rule:evenodd;stroke:#000000;stroke-width:1.09301;stroke-opacity:1"
       d=""
       id="path3901"
       transform="scale(0.26458333)" />
    <path
       style="fill:#787264;fill-opacity:1;fill-rule:evenodd;stroke:#000000;stroke-width:1.09301;stroke-opacity:1"
       d=""
       id="path3903"
       transform="scale(0.26458333)" />
    <path
       style="fill:#787264;fill-opacity:1;fill-rule:evenodd;stroke:#000000;stroke-width:1.09301;stroke-opacity:1"
       d=""
       id="path3905"
       transform="scale(0.26458333)" />
    <path
       style="fill:#787264;fill-opacity:1;fill-rule:evenodd;stroke:#000000;stroke-width:1.09301;stroke-opacity:1"
       d=""
       id="path3907"
       transform="scale(0.26458333)" />
    <path
       style="fill:#787264;fill-opacity:1;fill-rule:evenodd;stroke:#000000;stroke-width:1.09301;stroke-opacity:1"
       d="m 381.84528,581.4805 c -0.66337,-1.20231 -4.32139,-9.05858 -8.12893,-17.45837 -3.80754,-8.39979 -8.25965,-17.74502 -9.89357,-20.76716 -5.239,-9.69018 -33.97506,-38.95685 -44.04485,-44.85815 -2.67892,-1.56995 -11.85013,-6.00752 -20.38047,-9.86128 -17.62396,-7.96198 -22.22178,-10.61137 -19.41458,-11.18719 2.7683,-0.56783 17.06566,4.55714 33.11862,11.87156 l 14.45615,6.58686 17.65143,17.69767 c 9.70828,9.73372 18.94046,19.59738 20.51594,21.91924 6.19051,9.12325 18.45231,40.81324 17.70357,45.75396 -0.36742,2.42453 -0.40836,2.43236 -1.58331,0.30286 z"
       id="path3909"
       transform="scale(0.26458333)" />
    <path
       style="fill:#787264;fill-opacity:1;fill-rule:evenodd;stroke:#000000;stroke-width:1.09301;stroke-opacity:1"
       d="m 372.25429,558.16585 c -4.13182,-9.00423 -9.03827,-18.29048 -10.90321,-20.6361 -8.11916,-10.21182 -17.27591,-19.87761 -27.73397,-29.27578 -10.393,-9.33971 -12.56366,-10.7243 -29.21889,-18.63774 -9.89551,-4.70168 -17.76546,-8.77488 -17.48878,-9.05156 0.70035,-0.70035 8.40445,2.25163 25.96659,9.94961 l 15.03123,6.58861 18.57816,19.53492 c 14.45513,15.19957 19.39699,21.16649 22.26778,26.88669 4.41487,8.79685 11.87247,28.43576 11.37023,29.94248 -0.19621,0.58862 -3.73732,-6.29689 -7.86914,-15.30113 z"
       id="path3911"
       transform="scale(0.26458333)" />
    <path
       style="fill:#787264;fill-opacity:1;fill-rule:evenodd;stroke:#000000;stroke-width:1.09301;stroke-opacity:1"
       d=""
       id="path3913"
       transform="scale(0.26458333)" />
    <path
       style="fill:#787264;fill-opacity:1;fill-rule:evenodd;stroke:#000000;stroke-width:1.09301;stroke-opacity:1"
       d=""
       id="path3915"
       transform="scale(0.26458333)" />
    <path
       style="fill:#787264;fill-opacity:1;fill-rule:evenodd;stroke:#000000;stroke-width:1.09301;stroke-opacity:1"
       d=""
       id="path3917"
       transform="scale(0.26458333)" />
    <path
       style="fill:#787264;fill-opacity:1;fill-rule:evenodd;stroke:#000000;stroke-width:1.09301;stroke-opacity:1"
       d=""
       id="path3919"
       transform="scale(0.26458333)" />
    <path
       style="fill:#787264;fill-opacity:1;fill-rule:evenodd;stroke:#000000;stroke-width:1.09301;stroke-opacity:1"
       d=""
       id="path3921"
       transform="scale(0.26458333)" />
    <path
       style="fill:#787264;fill-opacity:1;fill-rule:evenodd;stroke:#000000;stroke-width:1.09301;stroke-opacity:1"
       d="m 286.31418,596.97503 c -9.91779,-2.75773 -16.07395,-8.20501 -20.63414,-18.25814 -3.38434,-7.4609 -3.01555,-15.60591 1.07745,-23.79673 5.60991,-11.22642 14.84891,-17.02898 26.97024,-16.93868 11.76663,0.0877 20.88008,5.91083 26.82391,17.13951 3.36177,6.35084 3.36177,19.04297 0,25.3938 -3.76834,7.11891 -7.61474,11.0282 -13.73969,13.96437 -7.14859,3.42687 -14.10382,4.27376 -20.49777,2.49587 z"
       id="path3923"
       transform="scale(0.26458333)" />
    <path
       style="fill:#787264;fill-opacity:1;fill-rule:evenodd;stroke:#000000;stroke-width:1.09301;stroke-opacity:1"
       d="m 288.92995,596.09295 c -10.1838,-1.79533 -17.02028,-7.36951 -21.76711,-17.74797 -2.41077,-5.27091 -2.82818,-7.43833 -2.34118,-12.15687 1.59895,-15.49238 13.66723,-26.76708 28.65111,-26.76708 16.10349,0 28.21094,12.12539 28.17852,28.22026 -0.0169,8.37293 -1.82376,13.39577 -6.89789,19.17488 -6.28622,7.15961 -16.67112,10.89027 -25.82345,9.27678 z"
       id="path3925"
       transform="scale(0.26458333)" />
    <path
       style="fill:#787264;fill-opacity:1;fill-rule:evenodd;stroke:#000000;stroke-width:1.09301;stroke-opacity:1"
       d="m 284.33203,593.64662 c -6.14205,-2.22271 -12.18807,-8.17651 -15.57647,-15.33888 -3.58874,-7.58584 -3.80595,-10.08543 -1.53962,-17.71701 4.58883,-15.45226 22.08494,-24.06941 36.38221,-17.91889 6.82422,2.9357 13.86268,10.22122 15.47125,16.0143 1.68424,6.0656 1.45007,15.11748 -0.51283,19.82369 -5.23745,12.55721 -21.48982,19.74528 -34.22454,15.13679 z"
       id="path3927"
       transform="scale(0.26458333)" />
    <path
       style="fill:#787264;fill-opacity:1;fill-rule:evenodd;stroke:#000000;stroke-width:1.09301;stroke-opacity:1"
       d="m 284.86507,592.50959 c -5.95792,-2.21546 -11.35204,-7.74499 -15.02399,-15.40112 -3.65363,-7.61795 -3.70019,-8.12408 -1.44582,-15.71537 4.42011,-14.88413 20.81017,-23.34964 34.12087,-17.62353 21.21758,9.12756 22.41086,36.80967 2.03483,47.20475 -5.60003,2.85692 -14.30577,3.53587 -19.68589,1.53527 z"
       id="path3929"
       transform="scale(0.26458333)" />
    <path
       style="fill:#787264;fill-opacity:1;fill-rule:evenodd;stroke:#000000;stroke-width:1.09301;stroke-opacity:1"
       d="m 285.94793,591.39071 c -5.84403,-2.14191 -11.75489,-8.23603 -15.41411,-15.89199 -2.89409,-6.05514 -2.99234,-6.72536 -1.67536,-11.42912 2.80434,-10.01613 8.96942,-16.5549 18.80317,-19.9429 13.89638,-4.78769 30.44894,8.71878 30.37373,24.7842 -0.0694,14.82687 -18.23836,27.55567 -32.08743,22.47981 z"
       id="path3931"
       transform="scale(0.26458333)" />
    <path
       style="fill:#787264;fill-opacity:1;fill-rule:evenodd;stroke:#000000;stroke-width:1.09301;stroke-opacity:1"
       d="m 287.04094,590.25306 c -5.68075,-2.02234 -12.18099,-8.56638 -15.52009,-15.62466 -2.29041,-4.84153 -2.5583,-6.38831 -1.66607,-9.6197 2.76757,-10.02333 9.99653,-17.33455 19.96677,-20.19398 9.19076,-2.63587 23.16627,6.79947 26.07581,17.60467 2.71419,10.07971 -1.89916,20.03848 -11.71241,25.28345 -6.86256,3.66788 -11.89975,4.41718 -17.14401,2.55022 z"
       id="path3933"
       transform="scale(0.26458333)" />
    <path
       style="fill:#787264;fill-opacity:1;fill-rule:evenodd;stroke:#000000;stroke-width:1.09301;stroke-opacity:1"
       d="m 285.82171,588.40552 c -7.13122,-3.93443 -14.76112,-14.55672 -14.74536,-20.52836 0.0141,-5.34775 5.35503,-14.2375 10.83567,-18.03559 9.14067,-6.33448 18.90083,-4.79036 27.29718,4.3186 7.67264,8.32383 8.2306,17.70347 1.57738,26.51651 -5.33994,7.07342 -18.67184,11.20083 -24.96487,7.72884 z"
       id="path3935"
       transform="scale(0.26458333)" />
    <path
       style="fill:#787264;fill-opacity:1;fill-rule:evenodd;stroke:#000000;stroke-width:1.09301;stroke-opacity:1"
       d="m 282.90877,584.48627 c -5.69938,-5.12432 -10.75289,-12.93987 -10.73941,-16.60911 0.0133,-3.60998 5.62836,-13.38649 9.38619,-16.3424 4.03489,-3.17384 10.42626,-4.90449 14.96675,-4.05269 4.43327,0.83169 13.14882,8.07695 15.73726,13.08244 3.42777,6.62857 1.62677,15.68441 -4.20058,21.1214 -3.74492,3.49407 -11.79112,6.84756 -16.49583,6.87514 -3.21253,0.0188 -5.07858,-0.85977 -8.65438,-4.07478 z"
       id="path3937"
       transform="scale(0.26458333)" />
    <path
       style="fill:#787264;fill-opacity:1;fill-rule:evenodd;stroke:#000000;stroke-width:1.09301;stroke-opacity:1"
       d="m 283.18636,582.55863 c -2.90083,-2.71339 -6.42465,-7.10199 -7.83071,-9.75245 l -2.55649,-4.81902 2.57767,-5.50343 c 4.40728,-9.40972 12.96204,-15.23882 20.33459,-13.85573 4.04996,0.75978 12.92329,8.13348 15.28614,12.70272 4.60387,8.9029 -0.12987,18.72274 -11.51324,23.88346 -7.57246,3.43303 -10.25628,2.99573 -16.29796,-2.65555 z"
       id="path3939"
       transform="scale(0.26458333)" />
    <path
       style="fill:#787264;fill-opacity:1;fill-rule:evenodd;stroke:#000000;stroke-width:1.09301;stroke-opacity:1"
       d="m 284.03191,581.23415 c -3.03692,-2.84068 -6.48121,-7.04572 -7.65397,-9.34452 l -2.13229,-4.17963 2.49986,-5.00549 c 2.94842,-5.90363 9.49814,-11.85799 14.04365,-12.76709 4.51224,-0.90244 7.90307,0.65684 14.16433,6.51351 7.81669,7.31161 8.63225,13.98837 2.58633,21.17353 -3.16153,3.75727 -12.14855,8.77458 -15.71705,8.77458 -1.24805,0 -4.75394,-2.3242 -7.79086,-5.16489 z"
       id="path3941"
       transform="scale(0.26458333)" />
    <path
       style="fill:#787264;fill-opacity:1;fill-rule:evenodd;stroke:#000000;stroke-width:1.09301;stroke-opacity:1"
       d="m 285.22057,580.23062 c -2.98431,-2.79148 -6.44973,-6.73181 -7.70093,-8.75629 l -2.2749,-3.68088 2.7317,-4.63306 c 5.69859,-9.66499 12.56402,-13.86294 18.55438,-11.34529 4.3176,1.81461 12.46717,10.50816 13.42385,14.31989 1.40283,5.58931 -3.39599,12.28462 -12.09368,16.8731 -2.39572,1.26387 -4.99902,2.29794 -5.78512,2.29794 -0.7861,0 -3.87098,-2.28394 -6.8553,-5.07541 z"
       id="path3943"
       transform="scale(0.26458333)" />
    <path
       style="fill:#787264;fill-opacity:1;fill-rule:evenodd;stroke:#000000;stroke-width:1.09301;stroke-opacity:1"
       d="m 286.22534,579.05507 c -3.03284,-2.83687 -6.48087,-6.51542 -7.66227,-8.17454 l -2.148,-3.0166 3.45134,-5.27198 c 4.04158,-6.17359 9.24994,-10.07618 13.44757,-10.07618 3.52923,0 12.87383,8.18971 14.88518,13.04555 1.48831,3.59311 -0.0739,7.6459 -4.51221,11.70564 -2.87003,2.62524 -9.75038,6.9357 -11.08076,6.94197 -0.47662,0.002 -3.348,-2.31699 -6.38085,-5.15386 z"
       id="path3945"
       transform="scale(0.26458333)" />
    <path
       style="fill:#787264;fill-opacity:1;fill-rule:evenodd;stroke:#000000;stroke-width:1.09301;stroke-opacity:1"
       d="m 285.51688,576.2593 c -3.73985,-3.77339 -6.79972,-7.47284 -6.79972,-8.221 0,-4.50453 10.09507,-14.42952 14.6768,-14.42952 1.01705,0 4.52493,2.53062 7.7953,5.62359 7.56424,7.15395 7.95602,10.62485 1.84733,16.36626 -3.54888,3.33553 -9.32381,7.52138 -10.3767,7.52138 -0.1888,0 -3.40316,-3.08732 -7.14301,-6.86071 z"
       id="path3947"
       transform="scale(0.26458333)" />
    <path
       style="fill:#787264;fill-opacity:1;fill-rule:evenodd;stroke:#000000;stroke-width:1.09301;stroke-opacity:1"
       d="m 285.87792,574.43274 -6.43342,-6.50125 2.84177,-4.29421 c 3.70647,-5.60084 9.79746,-9.46331 12.57728,-7.9756 3.46838,1.85622 11.17882,10.90799 11.17882,13.12351 0,2.19322 -10.20141,12.1488 -12.44877,12.1488 -0.70525,0 -4.17731,-2.92556 -7.71568,-6.50125 z"
       id="path3949"
       transform="scale(0.26458333)" />
    <path
       style="fill:#787264;fill-opacity:1;fill-rule:evenodd;stroke:#000000;stroke-width:1.09301;stroke-opacity:1"
       d="m 287.04551,573.4151 -6.35883,-6.42588 4.83942,-5.05071 c 2.66169,-2.77788 5.84014,-5.0507 7.06324,-5.0507 2.14637,0 12.36002,9.77293 12.36002,11.8267 0,0.88035 -10.30529,11.12648 -11.19073,11.12648 -0.19486,0 -3.21576,-2.89165 -6.71312,-6.42589 z"
       id="path3951"
       transform="scale(0.26458333)" />
    <path
       style="fill:#787264;fill-opacity:1;fill-rule:evenodd;stroke:#000000;stroke-width:1.09301;stroke-opacity:1"
       d="m 288.02176,572.20417 -5.36884,-5.4508 3.22391,-3.38733 c 5.72794,-6.01829 6.44682,-6.0365 12.56023,-0.31812 l 5.50353,5.1479 -4.64173,4.72958 c -2.55295,2.60126 -4.9267,4.72957 -5.27499,4.72957 -0.3483,0 -3.04925,-2.45286 -6.00211,-5.4508 z"
       id="path3953"
       transform="scale(0.26458333)" />
    <path
       style="fill:#787264;fill-opacity:1;fill-rule:evenodd;stroke:#000000;stroke-width:1.09301;stroke-opacity:1"
       d=""
       id="path3955"
       transform="scale(0.26458333)" />
    <path
       style="fill:#787264;fill-opacity:1;fill-rule:evenodd;stroke:#000000;stroke-width:1.09301;stroke-opacity:1"
       d=""
       id="path3957"
       transform="scale(0.26458333)" />
    <path
       style="fill:#787264;fill-opacity:1;fill-rule:evenodd;stroke:#000000;stroke-width:1.09301;stroke-opacity:1"
       d=""
       id="path3959"
       transform="scale(0.26458333)" />
    <path
       style="fill:#787264;fill-opacity:1;fill-rule:evenodd;stroke:#000000;stroke-width:1.09301;stroke-opacity:1"
       d=""
       id="path3961"
       transform="scale(0.26458333)" />
    <path
       style="fill:#787264;fill-opacity:1;fill-rule:evenodd;stroke:#000000;stroke-width:1.09301;stroke-opacity:1"
       d=""
       id="path3963"
       transform="scale(0.26458333)" />
    <path
       style="fill:#787264;fill-opacity:1;fill-rule:evenodd;stroke:#000000;stroke-width:1.09301;stroke-opacity:1"
       d=""
       id="path3965"
       transform="scale(0.26458333)" />
    <path
       style="fill:#787264;fill-opacity:1;fill-rule:evenodd;stroke:#000000;stroke-width:1.09301;stroke-opacity:1"
       d="m 289.1483,571.14563 c -4.46019,-4.56765 -4.40674,-5.59372 0.49894,-9.57777 2.43436,-1.97702 3.40714,-1.67944 8.124,2.4852 l 4.29846,3.79522 -3.69312,3.81034 c -2.03122,2.09568 -3.98867,3.81033 -4.34989,3.81033 -0.36123,0 -2.5565,-1.94549 -4.87839,-4.32332 z"
       id="path3967"
       transform="scale(0.26458333)" />
    <path
       style="fill:#787264;fill-opacity:1;fill-rule:evenodd;stroke:#000000;stroke-width:1.09301;stroke-opacity:1"
       d="m 290.25626,570.06916 c -3.28093,-3.42455 -3.20373,-5.7427 0.25283,-7.5926 1.65822,-0.88745 2.83064,-0.4814 5.80003,2.00879 l 3.7217,3.12107 -2.64979,2.83826 c -1.45739,1.56104 -2.9639,2.83826 -3.34779,2.83826 -0.38389,0 -2.08354,-1.4462 -3.77698,-3.21378 z"
       id="path3969"
       transform="scale(0.26458333)" />
    <path
       style="fill:#787264;fill-opacity:1;fill-rule:evenodd;stroke:#000000;stroke-width:1.09301;stroke-opacity:1"
       d=""
       id="path3971"
       transform="scale(0.26458333)" />
    <path
       style="fill:#787264;fill-opacity:1;fill-rule:evenodd;stroke:#000000;stroke-width:1.09301;stroke-opacity:1"
       d=""
       id="path3973"
       transform="scale(0.26458333)" />
    <path
       style="fill:#787264;fill-opacity:1;fill-rule:evenodd;stroke:#000000;stroke-width:1.09301;stroke-opacity:1"
       d=""
       id="path3975"
       transform="scale(0.26458333)" />
    <path
       style="fill:#787264;fill-opacity:1;fill-rule:evenodd;stroke:#000000;stroke-width:1.09301;stroke-opacity:1"
       d="m 290.93843,568.57535 c -1.83475,-1.953 -2.07488,-2.81559 -1.06494,-3.82553 1.86517,-1.86517 3.52328,-1.61745 5.76674,0.86155 1.6038,1.77218 1.70952,2.46704 0.58208,3.82553 -1.8376,2.21417 -2.49511,2.10696 -5.28388,-0.86155 z"
       id="path3977"
       transform="scale(0.26458333)" />
    <path
       style="fill:#787264;fill-opacity:1;fill-rule:evenodd;stroke:#000000;stroke-width:1.09301;stroke-opacity:0"
       d=""
       id="path3979"
       transform="scale(0.26458333)" />
  </g>
</svg>
