<?xml version="1.0" encoding="UTF-8" standalone="no"?>
<!-- Uploaded to: SVG Repo, www.svgrepo.com, Generator: SVG Repo Mixer Tools -->

<svg
   fill="#000000"
   height="800px"
   width="800px"
   version="1.1"
   viewBox="0 0 512 512"
   enable-background="new 0 0 512 512"
   id="svg8"
   sodipodi:docname="BlogDesk.svg"
   inkscape:version="1.2 (dc2aedaf03, 2022-05-15)"
   xmlns:inkscape="http://www.inkscape.org/namespaces/inkscape"
   xmlns:sodipodi="http://sodipodi.sourceforge.net/DTD/sodipodi-0.dtd"
   xmlns:xlink="http://www.w3.org/1999/xlink"
   xmlns="http://www.w3.org/2000/svg"
   xmlns:svg="http://www.w3.org/2000/svg">
  <defs
     id="defs12">
    <linearGradient
       id="linearGradient846"
       inkscape:swatch="solid">
      <stop
         style="stop-color:#424242;stop-opacity:1;"
         offset="0"
         id="stop844" />
    </linearGradient>
    <linearGradient
       inkscape:collect="always"
       xlink:href="#linearGradient846"
       id="linearGradient848"
       x1="11.051494"
       y1="255.97505"
       x2="501.025"
       y2="255.97505"
       gradientUnits="userSpaceOnUse" />
  </defs>
  <sodipodi:namedview
     id="namedview10"
     pagecolor="#ffffff"
     bordercolor="#000000"
     borderopacity="0.25"
     inkscape:showpageshadow="2"
     inkscape:pageopacity="0.0"
     inkscape:pagecheckerboard="0"
     inkscape:deskcolor="#d1d1d1"
     showgrid="false"
     inkscape:zoom="1.28375"
     inkscape:cx="351.31451"
     inkscape:cy="401.16845"
     inkscape:window-width="1741"
     inkscape:window-height="1435"
     inkscape:window-x="1508"
     inkscape:window-y="425"
     inkscape:window-maximized="0"
     inkscape:current-layer="svg8" />
  <g
     id="g6"
     style="fill:#909090;stroke:url(#linearGradient848);stroke-width:6.4;stroke-dasharray:none;fill-opacity:1"
     inkscape:export-filename="..\..\..\..\..\Desktop\asdf.png"
     inkscape:export-xdpi="96"
     inkscape:export-ydpi="96">
    <g
       id="g4"
       style="fill:#909090;stroke:url(#linearGradient848);stroke-width:6.4;stroke-dasharray:none;fill-opacity:1">
      <path
         d="m455.1,137.9l-32.4,32.4-81-81.1 32.4-32.4c6.6-6.6 18.1-6.6 24.7,0l56.3,56.4c6.8,6.8 6.8,17.9 0,24.7zm-270.7,271l-81-81.1 209.4-209.7 81,81.1-209.4,209.7zm-99.7-42l60.6,60.7-84.4,23.8 23.8-84.5zm399.3-282.6l-56.3-56.4c-11-11-50.7-31.8-82.4,0l-285.3,285.5c-2.5,2.5-4.3,5.5-5.2,8.9l-43,153.1c-2,7.1 0.1,14.7 5.2,20 5.2,5.3 15.6,6.2 20,5.2l153-43.1c3.4-0.9 6.4-2.7 8.9-5.2l285.1-285.5c22.7-22.7 22.7-59.7 0-82.5z"
         id="path2"
         style="fill:#909090;stroke:url(#linearGradient848);stroke-width:6.4;stroke-dasharray:none;fill-opacity:1" />
    </g>
  </g>
</svg>
